<svg id="_0344_salesman" xmlns="http://www.w3.org/2000/svg" viewBox="0 0 500 500" data-imageid="salesman-33" imageName="Salesman" class="illustrations_image" style="width: 188px;"><defs><style>.cls-1_salesman-33{fill:#fff;}.cls-2_salesman-33{opacity:.19;}.cls-2_salesman-33,.cls-3_salesman-33,.cls-4_salesman-33,.cls-5_salesman-33,.cls-6_salesman-33,.cls-7_salesman-33,.cls-8_salesman-33,.cls-9_salesman-33{fill:none;}.cls-10_salesman-33{fill:#f4a28c;}.cls-3_salesman-33{opacity:.46;}.cls-11_salesman-33{fill:#a5a5a5;}.cls-12_salesman-33{fill:#ce8172;}.cls-13_salesman-33{fill:#e6e6e6;}.cls-4_salesman-33{opacity:.03;}.cls-5_salesman-33{opacity:.08;}.cls-6_salesman-33{opacity:.27;}.cls-7_salesman-33{opacity:.31;}.cls-8_salesman-33{opacity:.55;}.cls-9_salesman-33{opacity:.3;}.cls-14_salesman-33{fill:#24285b;}.cls-15_salesman-33{fill:#000001;}.cls-16_salesman-33{fill:#ffd200;}.cls-17_salesman-33{fill:#68e1fd;}</style></defs><g id="bg_salesman-33"><g class="cls-9_salesman-33"><circle class="cls-13_salesman-33" cx="244.56" cy="194.64" r="181.69"/></g><g class="cls-4_salesman-33"><ellipse class="cls-15_salesman-33" cx="257.87" cy="466.96" rx="223.11" ry="20.1"/></g></g><g id="person_salesman-33"><path class="cls-10_salesman-33" d="m231.49,275.43c.71-.43,1.65-.82,2.3-.32.68.53.5,1.6.18,2.4-.98,2.49-2.53,4.75-4.51,6.56,6-1.81,12.6-1.54,18.43.75.43.17.87.36,1.21.67.87.79.91,2.2.39,3.26s-1.46,1.83-2.39,2.54c-5.01,3.83-10.59,6.98-16.65,8.74-2.23.65-4.57,1.11-6.87.77s-4.56-1.59-5.63-3.65c-3.95-7.59,8.01-18.37,13.53-21.72Z"/><g id="person-2_salesman-33"><path class="cls-17_salesman-33 targetColor" d="m111.45,177.56s27.03-4.81,31.93,21.43-10.16,87.74,44.04,87.31c54.19-.43,40.86-2.15,40.86-2.15l2.17,15.48s-95.94,35.77-113.84-21.86c-17.9-57.63-5.16-100.2-5.16-100.2Z" style="fill: rgb(228, 112, 231);"/><g class="cls-3_salesman-33"><path class="cls-1_salesman-33" d="m111.45,177.56s27.03-4.81,31.93,21.43-10.16,87.74,44.04,87.31c54.19-.43,40.86-2.15,40.86-2.15l2.17,15.48s-95.94,35.77-113.84-21.86c-17.9-57.63-5.16-100.2-5.16-100.2Z"/></g><polygon class="cls-10_salesman-33" points="127.53 366.73 81.39 451.94 75.04 450.45 102.72 360.92 127.53 366.73"/><path class="cls-17_salesman-33 targetColor" d="m81.96,450.62s1.11,5.77,5.35,7.72c4.24,1.94,1.81,8.1-4.52,4.05-2.42-1.55-4.25-3.01-5.58-4.23-1.59-1.45-3.61-2.24-5.71-2.71-.66-.15-1.25-.62-1.5-1.74-.74-3.2,6.55-5.9,6.55-5.9l5.43,2.81Z" style="fill: rgb(228, 112, 231);"/><polygon class="cls-10_salesman-33" points="135.95 358.59 143.38 455.2 137.23 457.39 111.95 367.15 135.95 358.59"/><path class="cls-17_salesman-33 targetColor" d="m143.14,453.79s4.06,4.25,8.68,3.58c4.62-.67,5.92,5.82-1.61,5.85-2.87.01-5.2-.23-6.99-.53-2.13-.36-4.25.07-6.27.82-.63.23-1.38.15-2.21-.65-2.35-2.29,2.3-8.51,2.3-8.51l6.09-.58Z" style="fill: rgb(228, 112, 231);"/><path class="cls-14_salesman-33" d="m100.38,131s-10-8.47-17.86-2.56c-7.86,5.91-2.53,29.8-19.65,24.31,0,0,18.6,15.43,31.62-9.77l5.9-11.99Z"/><path class="cls-17_salesman-33 targetColor" d="m92.41,147.39s-6.8-.96-3.99-10.23c2.81-9.27,10.49-8.92,12.69-6.5l-8.7,16.73Z" style="fill: rgb(228, 112, 231);"/><polygon class="cls-14_salesman-33" points="139.12 299.62 155.59 437.25 112.77 437.25 109.22 313.39 139.12 299.62"/><g class="cls-5_salesman-33"><polygon class="cls-15_salesman-33" points="139.12 299.62 155.59 437.25 112.77 437.25 109.22 313.39 139.12 299.62"/></g><path class="cls-10_salesman-33" d="m112.71,142.37s-.83,8.06-3.18,13.08c-.95,2.03-3.41,2.92-5.43,1.94-2.51-1.22-5.55-3.59-5.63-7.97l-1.04-7.41s-.49-4.67,4.62-7.03c5.11-2.37,11.43,2.5,10.67,7.39Z"/><polygon class="cls-10_salesman-33" points="95.76 146.14 90.49 172.17 105.04 174.05 103.08 154.85 95.76 146.14"/><path class="cls-10_salesman-33" d="m111.93,147.42l1.63,3.49c.4.86-.23,1.85-1.18,1.85h-3.15s2.71-5.34,2.71-5.34Z"/><g class="cls-7_salesman-33"><path class="cls-12_salesman-33" d="m103.14,155.39s-3.01-.92-4.45-2.88c0,0-1.68,5.57,5.01,8.38l-.56-5.5Z"/></g><path class="cls-10_salesman-33" d="m96.31,146.27s.53-3.08-1.82-3.28c-2.35-.21-3.14,4.23-.09,5.25l1.91-1.97Z"/><path class="cls-14_salesman-33" d="m111.12,141.68c-1.96.16-4.49-.06-7.73-.9,0,0-2.66,8.76-10.01,10.2,0,0-5.21-14.12,3.63-18.35,7.4-3.55,12.98-6.81,18.08-1,3.26,3.71.95,9.66-3.98,10.06Z"/><path class="cls-17_salesman-33 targetColor" d="m86.66,173.89s-43.88,4.73-45.6,29.96c-1.72,25.23,29.25,95.77,29.25,95.77h68.82l6.43-38.6c1.48-8.91,4.66-17.41,9.05-25.31,5.29-9.51,9.87-25.3-4.73-40.42-4.79-4.97-10.76-8.65-17.23-11.06l-25.74-9.61-20.25-.73Z" style="fill: rgb(228, 112, 231);"/><path class="cls-10_salesman-33" d="m102.99,145.5s.05-3.62-2.87-3.39c-2.92.23-3.35,4.43.05,6.49l2.82-3.1Z"/><path class="cls-17_salesman-33 targetColor" d="m84.79,173.32s-2.02-6.28,9.59-7.59c11.61-1.31,20.88,3.62,17.07,11.83,0,0-8.75,6.97-26.66-4.24Z" style="fill: rgb(228, 112, 231);"/><g class="cls-3_salesman-33"><path class="cls-1_salesman-33" d="m84.79,173.32s-2.02-6.28,9.59-7.59c11.61-1.31,20.88,3.62,17.07,11.83,0,0-8.75,6.97-26.66-4.24Z"/></g><path class="cls-14_salesman-33" d="m70.31,299.62l10.08,33.08c6.57,21.55,6.15,44.63-1.2,65.93l-8.88,25.73,42.47,12.9,10.29-42.31c4.22-17.36,3.77-35.53-1.32-52.65l-.18-.61c-4.65-15.66,1.83-32.49,15.79-40.98l1.76-1.07h-68.82Z"/><g class="cls-5_salesman-33"><path class="cls-15_salesman-33" d="m81.63,196.27s10.77,17.18,0,40.48c-3.58,7.75-8.18,19.5-.25,26.18,3.94,3.32,9.54,4.41,14.48,5.07,3.75.5,7.56.7,11.34.73,4.98.03,7.22,1.22,11.88,2.78,1.79.6,3.72.62,5.59.85,4.62.56,9.07,2.44,12.68,5.37,7.02,5.68,3.07,14.21,1.77,21.89h-68.82l-1.28-4.62-14.52-26.56-6.67-33.55,33.78-38.62Z"/></g><g class="cls-5_salesman-33"><path class="cls-15_salesman-33" d="m132.4,270.82s5.41,9.59-5.06,11.6c-10.47,2.01-10.73,8.25-10.73,8.25l-22.1-2.95,37.89-16.9Z"/></g><path class="cls-17_salesman-33 targetColor" d="m81.7,206.67c4.6-16.84-14.32-30.45-28.86-20.79-17.19,11.42-41.53,35.23-31.45,74.68,15.05,58.92,61.32,39.51,95.22,17.2l-5.33-9.03s-49.72,15.15-55.24-11.32c-1.44-6.9.91-14.04,5.72-19.18,6.28-6.71,16.53-19.08,19.93-31.55Z" style="fill: rgb(228, 112, 231);"/><g class="cls-3_salesman-33"><path class="cls-1_salesman-33" d="m81.7,206.67c4.6-16.84-14.32-30.45-28.86-20.79-17.19,11.42-41.53,35.23-31.45,74.68,15.05,58.92,61.32,39.51,95.22,17.2l-5.33-9.03s-49.72,15.15-55.24-11.32c-1.44-6.9.91-14.04,5.72-19.18,6.28-6.71,16.53-19.08,19.93-31.55Z"/></g><path class="cls-10_salesman-33" d="m111.28,268.73s14.63-8.54,20.22,0c5.59,8.54-14.89,9.03-14.89,9.03l-5.33-9.03Z"/></g></g><g id="sales_salesman-33"><path class="cls-10_salesman-33" d="m267.89,221.68s-4.11-14.07-5.06-12.81c-.95,1.26-.79,5.22-.79,5.22,0,0-4.43-7.43-7.11-6.32s-5.22,4.43-5.38,6.17c-.16,1.74,9.17,17.55,9.17,17.55l9.17-9.8Z"/><path class="cls-17_salesman-33 targetColor" d="m322.73,188.37s-16.06,70.92-22.88,68.57c-9.17-3.16-31.33-38.72-31.33-38.72l-12.02,12.43s27.19,73.6,47.43,69.58c20.24-4.02,43.05-55.11,43.05-55.11l-24.25-56.75Z" style="fill: rgb(228, 112, 231);"/><g class="cls-5_salesman-33"><path class="cls-15_salesman-33" d="m322.73,188.37s-16.06,70.92-22.88,68.57c-9.17-3.16-31.33-38.72-31.33-38.72l-12.02,12.43s27.19,73.6,47.43,69.58c20.24-4.02,43.05-55.11,43.05-55.11l-24.25-56.75Z"/></g><path class="cls-17_salesman-33 targetColor" d="m370.37,454.52s-3.14,6.63-9.4,6.56c-6.26-.08-8.47,5.84-3.04,7.96,5.43,2.12,20.53-3.66,20.53-3.66l.59-11.42-8.67.56Z" style="fill: rgb(228, 112, 231);"/><path class="cls-17_salesman-33 targetColor" d="m434.52,454.52s3.14,6.63,9.4,6.56c6.26-.08,8.47,5.84,3.04,7.96-5.43,2.12-20.53-3.66-20.53-3.66l-.59-11.42,8.67.56Z" style="fill: rgb(228, 112, 231);"/><path class="cls-14_salesman-33" d="m429.98,322.17l-78.21-10.23,14.8,143.48h18.24s-1.36-73.6,9.74-95.43c11.1-21.83,35.42-37.82,35.42-37.82Z"/><path class="cls-14_salesman-33" d="m429.98,322.17l11.51,133.25h-19.97s-13.91-100.98-49.74-127.04l58.2-6.21Z"/><path class="cls-10_salesman-33" d="m355.08,119.81s-.63,9.02.98,14.98c.65,2.42,3.19,3.87,5.6,3.18,2.99-.86,6.79-2.88,7.71-7.67l2.57-7.94s1.44-5.03-3.72-8.61c-5.15-3.58-13.03.55-13.14,6.06Z"/><polygon class="cls-10_salesman-33" points="370.37 124.64 378.88 153.01 362.92 156.58 363.13 134.51 370.37 124.64"/><path class="cls-10_salesman-33" d="m354.97,125.51l-2.46,3.52c-.61.87-.1,2.08.94,2.26l3.47.59-1.95-6.37Z"/><g class="cls-7_salesman-33"><path class="cls-12_salesman-33" d="m363.16,137.45s2.06-.44,5.64-3.98c0,0,.78,5.86-5.76,10.47l.12-6.49Z"/></g><path class="cls-14_salesman-33" d="m367.05,125.31c-.2,1.23-1.07,2.27-1.36,3.52-.14.63-.23,1.29-.05,1.91.32,1.13,1.54,1.88,2.72,1.83,3.04-.12,4.42-5.49,5.44-7.77,0,0,3.21-9.64.34-14.32-2.27-3.71-6.78-2.65-9.73-5.32-1.77-1.6-3.02-4.05-5.34-4.58-2.31-.53-4.55,1.15-5.97,3.04-1.47,1.95-2.48,4.28-2.67,6.72s.49,4.97,2.06,6.84c2.17,2.58,6.8,3.16,9.92,3.16,2.27,0,4.28,1.7,4.65,3.94.06.36.06.71,0,1.04Z"/><path class="cls-10_salesman-33" d="m363.96,125.04s0-3.48,2.63-3.25c2.62.22,2.63,5.25-.91,5.78l-1.72-2.53Z"/><path class="cls-17_salesman-33 targetColor" d="m449.06,225.11c-10.41,76.55-17.06,98.39-17.06,98.39l-78.92.76s-.52-7.9-1.74-18.88c-2.29-20.47-6.99-51.68-15.16-62.29-12.53-16.29-37.19-64.35,23.74-85.78l13.73-3.08s29.77-3.67,52.14,9.77c15.77,9.45,27.86,27.41,23.28,61.12Z" style="fill: rgb(228, 112, 231);"/><g class="cls-5_salesman-33"><path class="cls-15_salesman-33" d="m449.06,225.11c-10.41,76.55-17.06,98.39-17.06,98.39l-78.92.76s-.52-7.9-1.74-18.88c4.89-4.82,10.63-8.88,16.46-12.53,5.17-3.25,10.58-6.32,14.79-10.73,6.1-6.38,9.2-14.98,11.71-23.42,7.34-24.75,10.88-50.62,10.43-76.45l10.07-16.1c3.45-1.6,7.19-2.26,10.98-2.16,15.77,9.45,27.86,27.41,23.28,61.12Z"/></g><path class="cls-1_salesman-33" d="m354.76,159.26s-5.7,78.12,18.89,112.8c0,0-1.39-82.3,19.74-117.82,0,0-19.74-5.45-38.63,5.02Z"/><path class="cls-17_salesman-33 targetColor" d="m403.74,179.63c2.93-16.55,23.74-22.48,34.92-9.92,4.56,5.12,8.47,11.48,10.43,19.25,3.8,15.09.04,45.5-3.89,68.82-3.16,18.76-16.97,33.94-35.37,38.77l-55.85,14.69-4.74-11,44.55-19.64c11.65-5.14,17.95-17.95,14.76-30.29-4.65-18.02-9.35-45.09-4.81-70.68Z" style="fill: rgb(228, 112, 231);"/><g class="cls-2_salesman-33"><path class="cls-1_salesman-33" d="m403.74,179.63c2.93-16.55,23.74-22.48,34.92-9.92,4.56,5.12,8.47,11.48,10.43,19.25,3.8,15.09.04,45.5-3.89,68.82-3.16,18.76-16.97,33.94-35.37,38.77l-55.85,14.69-4.74-11,44.55-19.64c11.65-5.14,17.95-17.95,14.76-30.29-4.65-18.02-9.35-45.09-4.81-70.68Z"/></g><path class="cls-10_salesman-33" d="m349.24,300.23c-2.02.54-3.61,1.67-5.53,2.34-2.97,1.04-6.29,1.16-9.31,2.19-.57.19-1.27.6-1.15,1.19.07.36.43.59.75.77.79.44,1.58.88,2.37,1.32-1.92.75-3.84,1.5-5.76,2.25-.22.08-.44.18-.58.37-.14.2-.14.47-.1.71.65,3.87,6.24,3.73,9.19,3.72,5.95-.03,10.55-1,13.78-6.36.55-.9-3.15-7.3-3.66-8.51Z"/><g class="cls-6_salesman-33"><path class="cls-1_salesman-33" d="m354.76,159.26l-15.55,44.02,12.36,21.3-4.59,20.54,26.66,26.94s-22.07-19.79-18.89-112.8Z"/></g><path class="cls-14_salesman-33" d="m363.09,156.22c.09-2.25,1.56-1.83,3.72-2.45,1.91-.55,4.38-3.02,6.25-.94,3.61,4.01-2.78,11.56-2.78,11.56h-5.9s-1.43-4.95-1.3-8.17Z"/><path class="cls-14_salesman-33" d="m364.39,164.39h5.9s.55,45.75,4.45,72.79l-1.1,34.88s-12.73-16.99-14.75-38.77c0,0,.6-42.84,5.5-68.9Z"/><path class="cls-17_salesman-33 targetColor" d="m354.76,159.26l7.22,5.13,5.77-8.38,6.04,7.49,19.6-9.25s-23.7-9.6-38.63,5.02Z" style="fill: rgb(228, 112, 231);"/><g class="cls-8_salesman-33"><path class="cls-1_salesman-33" d="m354.76,159.26l7.22,5.13,5.77-8.38,6.04,7.49,19.6-9.25s-23.7-9.6-38.63,5.02Z"/></g><g class="cls-6_salesman-33"><path class="cls-1_salesman-33" d="m393.39,154.24l3.27,58.2-15.29,9.12,9.01,18.95-16.75,31.55s-1.02-82.76,19.74-117.82Z"/></g><rect class="cls-16_salesman-33" x="221.15" y="205.54" width="68.38" height="84.73"/><path class="cls-10_salesman-33" d="m246.65,211.44c.43.9,1.03,1.73,1.83,2.33,1.09.81,2.49,1.14,3.85,1.14,3.79.02,7.56-2.72,8.29-6.44,2.53-12.94-19.65-9.07-13.96,2.97Z"/><rect class="cls-1_salesman-33" x="228.07" y="252.61" width="24.49" height="24.49"/><rect class="cls-1_salesman-33" x="228.07" y="219.18" width="54.54" height="1.66"/><rect class="cls-1_salesman-33" x="228.07" y="230.21" width="54.54" height="1.66"/><rect class="cls-1_salesman-33" x="228.07" y="241.24" width="54.54" height="1.66"/><rect class="cls-1_salesman-33" x="257.71" y="252.27" width="24.9" height="1.66"/><rect class="cls-1_salesman-33" x="257.71" y="263.29" width="24.9" height="1.66"/><rect class="cls-1_salesman-33" x="257.71" y="274.32" width="24.9" height="1.66"/></g><g id="dollar_salesman-33"><rect class="cls-13_salesman-33" x="175.95" y="80.82" width="132.17" height="96.78" rx="25.38" ry="25.38"/><path class="cls-13_salesman-33" d="m295,156.07s7.55,8.85,22.73,10.23c0,0-12.02,10.43-27.83-1.06l5.1-9.17Z"/><path class="cls-11_salesman-33" d="m247.05,94.5c0,2.35,0,4.7-.01,7.05,0,.45.14.61.58.7,3.48.72,6.66,2.09,9.42,4.38,2.94,2.45,4.67,5.58,5.33,9.32.17.99.25,2,.38,3.06h-10.9c-.15-1.66-.49-3.28-1.63-4.51-.87-.95-1.94-1.7-2.92-2.55-.06.05-.13.1-.19.15v13.58c.36.09.76.19,1.17.28,2.94.62,5.82,1.44,8.56,2.73,4.41,2.07,6.84,5.56,7.41,10.34.52,4.28-.26,8.28-2.83,11.84-2.06,2.86-4.79,4.86-8.09,6-2.02.7-4.11,1.16-6.27,1.75v5.28h-10.03v-5.45c-2.02-.55-3.97-.96-5.84-1.61-3.68-1.27-6.77-3.41-8.94-6.71-1.85-2.8-2.56-5.93-2.58-9.31h10.73c.49,3.99,2.43,6.84,6.57,7.95,0-4.89,0-9.73,0-14.58-2.03-.58-4.08-1.13-6.1-1.76-2.44-.76-4.71-1.82-6.56-3.66-1.89-1.88-3.01-4.16-3.47-6.76-.56-3.17-.48-6.31.68-9.35,1.72-4.53,4.92-7.64,9.41-9.34,1.74-.66,3.61-.95,5.43-1.4.2-.05.4-.08.66-.13v-7.32h10.04Zm.01,54.43c1.43-.11,3.31-.93,4.51-1.95,2.19-1.87,2.64-5.57.92-7.66-1.4-1.7-3.45-2.15-5.42-2.88v12.49Zm-10.07-37.8c-1.38.69-2.72,1.17-3.84,1.96-2.71,1.91-3,6.12-.63,8.17,1.28,1.1,2.87,1.52,4.48,2.01v-12.14Z"/></g></svg>